<svg width="512" height="512" viewBox="0 0 512 512" fill="none" xmlns="http://www.w3.org/2000/svg">
<g clip-path="url(#clip0)">
<path d="M501.451 133.094C495.549 111.161 478.256 93.8718 456.326 87.9655C416.26 77.0007 255.995 77.0007 255.995 77.0007C255.995 77.0007 95.734 77.0007 55.6677 87.5476C34.16 93.4499 16.4452 111.165 10.5429 133.094C0 173.157 0 256.242 0 256.242C0 256.242 0 339.746 10.5429 379.39C16.4492 401.32 33.7381 418.613 55.6716 424.519C96.1558 435.484 255.999 435.484 255.999 435.484C255.999 435.484 416.26 435.484 456.326 424.937C478.26 419.034 495.549 401.742 501.455 379.812C511.998 339.746 511.998 256.664 511.998 256.664C511.998 256.664 512.42 173.157 501.451 133.094Z" fill="#FF0000"/>
<path d="M196.257 338.946C209.102 338.946 219.514 328.534 219.514 315.689C219.514 302.845 209.102 292.432 196.257 292.432C183.413 292.432 173 302.845 173 315.689C173 328.534 183.413 338.946 196.257 338.946Z" fill="white"/>
<path d="M173 233.33V263.521C214.66 263.521 248.426 297.34 248.426 338.946H278.617C278.617 280.644 231.303 233.33 173 233.33Z" fill="white"/>
<path d="M173 173V203.191C247.998 203.191 308.808 264.001 308.808 339H339C338.947 247.305 264.641 173 173 173Z" fill="white"/>
</g>
<defs>
<clipPath id="clip0">
<rect width="512" height="512" fill="white"/>
</clipPath>
</defs>
</svg>
